<svg width="53" height="53" viewBox="0 0 53 53" fill="none" xmlns="http://www.w3.org/2000/svg">
<rect width="53" height="53" fill="url(#paint0_linear)"/>
<path d="M40.3232 22.9851H33.0433C32.9463 22.2377 32.7473 21.5631 32.4464 20.9613C32.1455 20.3595 31.7475 19.8451 31.2525 19.418C30.7575 18.9909 30.1702 18.6657 29.4908 18.4425C28.821 18.2095 28.0785 18.093 27.2631 18.093C25.8169 18.093 24.5696 18.4473 23.5213 19.1559C22.4827 19.8645 21.6819 20.8885 21.119 22.228C20.5657 23.5675 20.2891 25.1884 20.2891 27.0909C20.2891 29.071 20.5705 30.7308 21.1335 32.0703C21.7062 33.4001 22.507 34.4047 23.5359 35.0842C24.5745 35.7539 25.8023 36.0888 27.2195 36.0888C28.0154 36.0888 28.7385 35.9869 29.3888 35.783C30.0489 35.5792 30.6264 35.2831 31.1214 34.8949C31.6262 34.4969 32.0387 34.0165 32.359 33.4535C32.689 32.8808 32.9171 32.2353 33.0433 31.517L40.3232 31.5607C40.197 32.8808 39.8136 34.1815 39.1729 35.4627C38.542 36.744 37.6733 37.9136 36.5668 38.9716C35.4602 40.0199 34.111 40.8546 32.5192 41.4759C30.937 42.0971 29.1219 42.4077 27.0739 42.4077C24.3755 42.4077 21.9586 41.8156 19.8232 40.6314C17.6974 39.4375 16.0182 37.7 14.7855 35.419C13.5528 33.138 12.9364 30.362 12.9364 27.0909C12.9364 23.8101 13.5625 21.0292 14.8146 18.7482C16.0668 16.4672 17.7605 14.7346 19.896 13.5504C22.0314 12.3662 24.424 11.7741 27.0739 11.7741C28.8793 11.7741 30.5488 12.0265 32.0824 12.5312C33.616 13.0263 34.9652 13.7543 36.13 14.7152C37.2947 15.6664 38.2411 16.8361 38.9691 18.2241C39.6971 19.6121 40.1484 21.1991 40.3232 22.9851Z" fill="white"/>
<defs>
<linearGradient id="paint0_linear" x1="26.5" y1="0" x2="26.5" y2="53" gradientUnits="userSpaceOnUse">
<stop stop-color="#FA605E"/>
<stop offset="1" stop-color="#F368A8"/>
</linearGradient>
</defs>
</svg>
